<?xml version="1.0" standalone="no"?>
<!DOCTYPE svg PUBLIC "-//W3C//DTD SVG 1.1//EN" "http://www.w3.org/Graphics/SVG/1.1/DTD/svg11.dtd"><svg id="logo" t="1611279380975"
     viewBox="0 0 2661 1024" version="1.1" xmlns="http://www.w3.org/2000/svg"
    xmlns:xlink="http://www.w3.org/1999/xlink">
    <path
        d="M354.32569 525.828381h71.317951v497.527607H354.32569V525.828381zM850.721266 525.828381h71.317951v496.961591h-71.317951V525.828381zM780.535347 668.464282h-71.317951c0-8.490232 0.566015-18.678511-0.566015-26.036712-3.962108-19.244526-15.282418-33.394913-31.696867-40.187099-11.32031-5.094139-27.734759-4.528124-44.149208-4.528124-9.622263 0-19.810542-0.566015-27.168743 1.698046-8.490232 2.264062-14.716402 6.792186-20.942572 11.886325-19.244526 15.282418-17.54648 42.451161-17.54648 76.978106v156.220272c0 22.074604-2.264062 56.601548 3.962108 73.015997 6.22617 16.414449 19.244526 28.300774 37.357022 33.394913 7.358201 1.698046 16.980464 1.132031 25.470696 1.132031 29.99882 0 40.753115-0.566015 57.167564-13.584371 7.358201-6.22617 13.018356-16.414449 15.848433-27.168743s1.698046-24.904681 1.698047-37.923038v-63.393733h-71.883966v-71.317951h142.635901v170.37066c0 6.22617-0.566015 13.018356-0.566016 19.244526-2.830077 17.54648-7.358201 31.130851-15.282418 43.583192-15.282418 24.338666-37.923037 40.753115-69.619904 48.677331-14.150387 3.396093-34.526944 1.698046-51.507408 1.698047h-36.224991c-6.792186 0-14.716402 0.566015-20.942573-0.566016-30.564836-6.22617-52.63944-19.244526-68.487873-40.187099-9.622263-12.452341-16.414449-27.168743-20.376557-45.281238-2.264062-11.32031-1.698046-25.470697-1.698047-39.055068V832.042755v-149.994102c0-26.602728-2.830077-58.299594 3.396093-79.242167 9.056248-29.99882 26.602728-50.375378 50.941393-65.09178 20.942573-12.452341 41.31913-13.018356 74.714044-13.018356h40.753114c10.188279 0 19.810542-0.566015 28.300774 1.698046 45.281238 10.188279 74.714043 39.621084 84.336307 84.336307 5.660155 17.54648 3.396093 39.055068 3.396093 57.733579zM1347.682858 526.394396h71.31795v496.395576h-71.31795V526.394396zM1771.062436 608.466641c-7.924217-30.564836-24.338666-52.63944-48.111315-67.355842-13.018356-7.924217-27.734759-12.452341-46.41327-15.282418H1488.620712v496.961591h70.751935v-212.255805h63.959749c10.754294 0 23.77265-1.132031 33.394914 0.566016 9.056248 1.698046 16.414449 5.094139 22.640619 9.622263 24.338666 17.54648 21.508588 42.451161 21.508588 83.204275v118.863251h71.31795v-127.919498-33.960929c0-6.22617-0.566015-12.452341-0.566015-18.678511-2.264062-14.150387-5.660155-25.470697-11.32031-35.658975-3.962108-7.358201-13.584372-23.77265-20.376557-27.734759l-3.962108-3.962108c18.678511-14.150387 29.99882-39.055068 35.092959-67.355842 0-5.660155 0.566015-11.32031 0.566016-17.54648v-30.564836c2.264062-17.54648 3.396093-36.791006-0.566016-50.941393z m-76.412089 105.278879c-6.792186 11.32031-18.112495 20.376557-32.828898 23.77265-10.188279 2.264062-23.77265 1.698046-36.224991 1.698047h-65.09178v-142.069886h65.09178c11.886325 0 26.036712-1.132031 36.224991 1.698047 16.414449 3.962108 29.432805 14.716402 35.658975 28.866789 3.962108 9.056248 5.094139 19.244526 5.094139 32.262883 0 22.074604 0 40.753115-7.924216 53.77147zM284.139771 849.02322v-146.031994-53.771471c0-12.452341 0.566015-24.904681-1.698047-35.092959-6.22617-27.734759-18.678511-49.809362-37.923037-64.525765-12.452341-9.622263-26.602728-16.980464-44.149207-21.508588-18.112495-4.528124-46.979285-2.264062-69.053889-2.264062-43.583192 0.566015-87.732399 0.566015-131.315591 0.566015v496.961592h132.447622c20.942573 0 50.375378 2.264062 67.921858-1.698047 25.470697-6.22617 45.847254-18.678511 59.997641-36.791006 10.188279-13.018356 18.112495-28.300774 22.074603-47.5453 2.264062-10.754294 1.698046-23.77265 1.698047-36.791007V849.02322z m-73.015997 61.695687c-2.830077 10.188279-7.358201 17.54648-13.018356 24.338666-5.660155 7.358201-16.414449 12.452341-26.602728 15.282418-10.188279 2.264062-23.77265 1.698046-36.22499 1.698046H70.751935v-354.891706h66.789827c13.018356 0 27.734759-1.132031 37.923037 2.264062 10.754294 3.396093 19.810542 9.622263 26.036712 17.54648 14.716402 19.244526 11.32031 47.5453 11.320309 81.506229v187.351124c0 9.056248 0 18.112495-1.698046 24.904681zM1274.666861 830.910724c-2.830077-11.886325-7.358201-22.074604-13.018356-31.696866-3.396093-5.660155-10.754294-17.54648-16.414449-20.942573l-3.962109-3.962109c18.678511-14.150387 29.99882-39.055068 35.09296-67.355842 0-5.660155 0.566015-11.32031 0.566016-17.54648v-31.130851c0-16.414449 1.698046-36.224991-1.698047-50.375378-7.924217-30.564836-24.338666-52.63944-48.111316-67.355842-13.018356-7.924217-27.734759-12.452341-46.413269-15.282418h-187.917139v496.961592h134.145668c23.77265 0 52.63944 2.264062 71.883966-3.396093 29.99882-9.056248 50.941393-27.168743 65.091781-51.507409 14.150387-23.77265 13.018356-51.507409 13.018356-89.430446 0-15.848433 1.132031-33.394913-2.264062-46.979285z m-76.41209 95.656617c-6.792186 11.32031-18.112495 20.376557-32.828898 23.77265-10.188279 2.264062-23.77265 1.698046-36.224991 1.698046h-64.525764v-141.50387h64.525764c11.886325 0 26.036712-1.132031 36.224991 1.698047 16.414449 3.962108 29.432805 14.716402 35.658975 28.866789 3.962108 9.056248 5.094139 18.678511 5.09414 32.262882 0 21.508588 0 40.187099-7.924217 53.205456z m0-212.821821c-6.792186 11.32031-18.112495 20.376557-32.828898 23.77265-10.188279 2.264062-23.77265 1.698046-36.224991 1.698047h-64.525764v-141.50387h64.525764c11.886325 0 26.036712-1.132031 36.224991 1.698046 16.414449 3.962108 29.432805 14.716402 35.658975 28.86679 3.962108 9.056248 5.094139 18.678511 5.09414 32.262882 0 21.508588 0 40.187099-7.924217 53.205455zM2128.78422 858.079467v-155.088241-56.035533c0-11.32031 0.566015-23.77265-1.698047-33.394913-4.528124-20.376557-11.886325-35.09296-22.640619-49.243347-13.584372-17.54648-33.960929-29.99882-58.86561-36.22499-18.112495-4.528124-46.979285-2.264062-69.053888-2.264062h-131.881607v496.395576H2013.883077c7.924217 0 16.980464 0.566015 23.77265-0.566016 20.376557-3.962108 35.658975-10.754294 49.243347-20.942573 18.678511-14.150387 32.262882-34.526944 38.489053-60.563656 6.22617-21.508588 3.396093-56.035533 3.396093-82.072245z m-72.449982 52.63944c-2.264062 9.622263-6.792186 16.980464-12.45234 23.206635-6.22617 7.358201-16.414449 13.018356-27.168743 15.848433-9.622263 2.830077-23.77265 1.698046-35.09296 1.698047h-65.09178v-354.325691h65.09178c11.886325 0 25.470697-1.132031 35.09296 1.698047 11.886325 3.396093 22.074604 9.622263 28.866789 18.112495 15.282418 19.810542 11.886325 46.413269 11.886325 80.374198v189.615186c0 8.490232 0.566015 16.980464-1.132031 23.77265zM692.236932 885.814226v0zM709.217396 898.266567z"
        p-id="13789"></path>
    <path
        d="M2656.310647 772.045115c-16.980464-19.244526-207.727681-188.483155-255.838997-245.084703-84.902322-93.392554-353.193659-345.835458-353.193659-345.835458-39.055068-37.357022-86.600368-93.95857-86.600369-95.656617C1938.603019 39.621084 1873.511238-30.564836 1805.023365 14.716402c-3.962108 2.264062-11.886325 17.54648-36.791006 26.036713-57.733579 19.810542-57.733579 35.658975-57.733579 35.658975 39.055068 12.452341 58.299594 29.432805 58.299595 29.432805 37.357022 58.299594 36.224991 119.429266 46.979284 176.030814 32.828898 177.728861 196.973387 209.991743 247.914781 219.614006 15.848433 2.830077 8.490232 21.508588 2.264061 33.394913 10.754294 4.528124 20.376557 10.754294 28.300774 18.112496 7.924217-15.282418 13.584372-23.206635 22.074604-29.998821 22.640619-23.77265 127.919498-10.754294 203.199557 21.508589 73.582012 31.696867 301.120235 212.82182 317.534685 230.3683 15.848433 17.54648 28.300774 11.32031 19.244526-2.830077z"
        p-id="13790"></path>
</svg>
